<?xml version="1.0" encoding="utf-8"?>
<!-- Generator: Adobe Illustrator 22.1.0, SVG Export Plug-In . SVG Version: 6.00 Build 0)  -->
<svg version="1.1" id="Layer_1" xmlns="http://www.w3.org/2000/svg" xmlns:xlink="http://www.w3.org/1999/xlink" x="0px" y="0px"
	 viewBox="0 0 64 64" style="enable-background:new 0 0 64 64;" xml:space="preserve">
<style type="text/css">
	.st0{fill:#5CBA43;}
	.st1{fill:#FFFFFF;}
</style>
<circle class="st0" cx="32" cy="32" r="32"/>
<g>
	<path class="st1" d="M32,48.3c1.1,0,2-0.9,2-2c0-1.1-0.9-2-2-2c-3.4,0-6.5-1.4-8.7-3.6s-3.6-5.3-3.6-8.7c0-1.1-0.9-2-2-2
		c-1.1,0-2,0.9-2,2c0,4.5,1.8,8.6,4.8,11.5C23.4,46.5,27.5,48.3,32,48.3"/>
	<path class="st1" d="M32,15.7c-1.1,0-2,0.9-2,2c0,1.1,0.9,2,2,2c3.4,0,6.5,1.4,8.7,3.6c2.2,2.2,3.6,5.3,3.6,8.7c0,1.1,0.9,2,2,2
		c1.1,0,2-0.9,2-2c0-4.5-1.8-8.6-4.8-11.5C40.6,17.5,36.5,15.7,32,15.7"/>
	<path class="st1" d="M23.3,32C23.3,32,23.4,32,23.3,32"/>
	<path class="st1" d="M32,23.3L32,23.3L32,23.3c2.4,0,4.6,1,6.1,2.5c1.6,1.6,2.5,3.7,2.5,6.1c0,1.1-0.9,2-2,2c-1.1,0-2-0.9-2-2
		c0-1.3-0.5-2.5-1.4-3.3c-0.9-0.9-2-1.4-3.3-1.4c-1.3,0-2.5,0.5-3.3,1.4c-1.8,1.8-1.8,4.8,0,6.7c0.9,0.9,2,1.4,3.3,1.4
		c1.1,0,2,0.9,2,2c0,1.1-0.9,2-2,2c-2.4,0-4.6-1-6.1-2.5c-1.6-1.6-2.5-3.7-2.5-6.1c0-2.4,1-4.6,2.5-6.1C27.4,24.3,29.6,23.3,32,23.3
		L32,23.3L32,23.3L32,23.3z"/>
	<path class="st1" d="M40.1,40.1L40.1,40.1c0.8-0.8,0.8-2,0-2.8l0,0c-0.8-0.8-2-0.8-2.8,0c-0.8,0.8-0.8,2,0,2.8l0,0
		C38.1,40.9,39.3,40.9,40.1,40.1"/>
	<path class="st1" d="M32,8.3c-1.1,0-2,0.9-2,2c0,1.1,0.9,2,2,2c5.5,0,10.4,2.2,14,5.8c3.6,3.6,5.8,8.5,5.8,14c0,1.1,0.9,2,2,2
		c1.1,0,2-0.9,2-2c0-6.6-2.7-12.5-7-16.8C44.5,10.9,38.6,8.3,32,8.3"/>
	<path class="st1" d="M32,55.7c1.1,0,2-0.9,2-2s-0.9-2-2-2c-5.5,0-10.4-2.2-14-5.8c-3.6-3.6-5.8-8.5-5.8-14c0-1.1-0.9-2-2-2
		c-1.1,0-2,0.9-2,2c0,6.6,2.7,12.5,7,16.8C19.5,53.1,25.4,55.7,32,55.7"/>
</g>
</svg>
