<?xml version="1.0" encoding="utf-8"?>
<!-- Generator: Adobe Illustrator 22.1.0, SVG Export Plug-In . SVG Version: 6.00 Build 0)  -->
<svg version="1.1" id="Layer_1" xmlns="http://www.w3.org/2000/svg" xmlns:xlink="http://www.w3.org/1999/xlink" x="0px" y="0px"
	 viewBox="0 0 64 64" style="enable-background:new 0 0 64 64;" xml:space="preserve">
<style type="text/css">
	.st0{fill:#595757;}
</style>
<g>
	<path class="st0" d="M17.8,20.5L32,6.3l14.2,14.2c1,1,2.7,1,3.7,0c1-1,1-2.7,0-3.7L33.8,0.8C33.3,0.3,32.7,0,32,0
		c-0.7,0-1.3,0.3-1.9,0.8L14.1,16.8c-1,1-1,2.7,0,3.7C15.1,21.6,16.8,21.6,17.8,20.5z"/>
	<path class="st0" d="M46.2,43.5L32,57.7L17.8,43.5c-1-1-2.7-1-3.7,0c-1,1-1,2.7,0,3.7l16.1,16.1c0.5,0.5,1.2,0.8,1.8,0.8
		c0.7,0,1.3-0.3,1.9-0.8l16.1-16.1c1-1,1-2.7,0-3.7C48.9,42.4,47.2,42.4,46.2,43.5z"/>
</g>
</svg>
