<?xml version="1.0" encoding="utf-8"?>
<!-- Generator: Adobe Illustrator 22.1.0, SVG Export Plug-In . SVG Version: 6.00 Build 0)  -->
<svg version="1.1" id="Layer_1" xmlns="http://www.w3.org/2000/svg" xmlns:xlink="http://www.w3.org/1999/xlink" x="0px" y="0px"
	 viewBox="0 0 64 64" style="enable-background:new 0 0 64 64;" xml:space="preserve">
<style type="text/css">
	.st0{fill:#FFFFFF;}
</style>
<path class="st0" d="M58.4,0H11.3C8.1,0,5.6,2.5,5.6,5.6v1.9C2.5,7.5,0,10,0,13.1s2.5,5.6,5.6,5.6v7.8C2.5,26.5,0,29,0,32.1
	s2.5,5.6,5.6,5.6v7.5c-3.1,0-5.6,2.5-5.6,5.6s2.5,5.6,5.6,5.6v1.9c0,3.1,2.5,5.6,5.6,5.6h47.1c3.1,0,5.6-2.5,5.6-5.6V5.6
	C64,2.5,61.5,0,58.4,0z M40.3,3.8h8.9v27.6l-3-3c-0.7-0.7-1.9-0.7-2.6,0l-3.2,3.1V3.8z M3.8,13.1c0-1,0.8-1.9,1.9-1.9h7.5
	c1,0,1.9,0.8,1.9,1.9S14.2,15,13.1,15H5.6C4.6,15,3.8,14.2,3.8,13.1z M3.8,32.1c0-1,0.8-1.9,1.9-1.9h7.5c1,0,1.9,0.8,1.9,1.9
	S14.2,34,13.1,34H5.6C4.6,34,3.8,33.2,3.8,32.1z M3.8,50.9c0-1,0.8-1.9,1.9-1.9h7.5c1,0,1.9,0.8,1.9,1.9s-0.8,1.9-1.9,1.9H5.6
	C4.6,52.8,3.8,51.9,3.8,50.9z M60.3,58.4c0,1-0.8,1.9-1.9,1.9H11.3c-1,0-1.9-0.8-1.9-1.9v-1.9h3.8c3.1,0,5.6-2.5,5.6-5.6
	s-2.5-5.6-5.6-5.6H9.4v-7.5h3.8c3.1,0,5.6-2.5,5.6-5.6s-2.5-5.6-5.6-5.6H9.4v-7.8h3.8c3.1,0,5.6-2.5,5.6-5.6s-2.5-5.6-5.6-5.6H9.4
	V5.6c0-1,0.8-1.9,1.9-1.9h25.3v32.1c0,0.8,0.4,1.4,1.1,1.7c0.7,0.3,1.5,0.2,2-0.4l5.1-4.8l4.9,4.8c0.4,0.4,0.8,0.5,1.3,0.5
	c0.2,0,0.5,0,0.7-0.1c0.7-0.3,1.2-1,1.2-1.7V3.8h5.4c1,0,1.9,0.8,1.9,1.9V58.4z"/>
</svg>
