<?xml version="1.0" encoding="utf-8"?>
<!-- Generator: Adobe Illustrator 22.1.0, SVG Export Plug-In . SVG Version: 6.00 Build 0)  -->
<svg version="1.1" id="Layer_1" xmlns="http://www.w3.org/2000/svg" xmlns:xlink="http://www.w3.org/1999/xlink" x="0px" y="0px"
	 viewBox="0 0 64 64" style="enable-background:new 0 0 64 64;" xml:space="preserve">
<style type="text/css">
	.st0{fill:#FFFFFF;}
</style>
<path class="st0" d="M61.3,14.7h-8V4c0-1.5-1.2-2.7-2.7-2.7h-40C4.8,1.3,0,6.1,0,12v5.3V52c0,5.9,4.8,10.7,10.7,10.7h50.7
	c1.5,0,2.7-1.2,2.7-2.7V46.7v-16V17.3C64,15.9,62.8,14.7,61.3,14.7z M5.3,12c0-2.9,2.4-5.3,5.3-5.3H48v8H5.3V12z M58.7,44h-5.3
	c-2.9,0-5.3-2.4-5.3-5.3s2.4-5.3,5.3-5.3h5.3V44z M58.7,28h-5.3c-5.9,0-10.7,4.8-10.7,10.7c0,5.9,4.8,10.7,10.7,10.7h5.3v8h-48
	c-2.9,0-5.3-2.4-5.3-5.3V20h45.3h8V28z"/>
</svg>
