<?xml version="1.0" encoding="utf-8"?>
<!-- Generator: Adobe Illustrator 22.1.0, SVG Export Plug-In . SVG Version: 6.00 Build 0)  -->
<svg version="1.1" id="Layer_1" xmlns="http://www.w3.org/2000/svg" xmlns:xlink="http://www.w3.org/1999/xlink" x="0px" y="0px"
	 viewBox="0 0 64 64" style="enable-background:new 0 0 64 64;" xml:space="preserve">
<style type="text/css">
	.st0{fill:#FF8600;}
</style>
<g>
	<path class="st0" d="M31.9,51.8L31.9,51.8c-2.3,0-4.1,1.9-4.1,4.1c0,2.3,1.9,4.1,4.1,4.1S36,58.2,36,56
		C36,53.7,34.1,51.8,31.9,51.8z"/>
	<path class="st0" d="M31.9,47.7c2.3,0,4.1-1.9,4.1-4.1V28c0-2.3-1.9-4.1-4.1-4.1s-4.1,1.9-4.1,4.1v15.6
		C27.7,45.8,29.6,47.7,31.9,47.7z"/>
	<path class="st0" d="M63.2,44.3L63.1,44L57,33.9L41.9,9.4C39.7,6,36,3.9,32,3.9c-4,0-7.7,2.1-9.8,5.5l-20.4,33
		c-2.2,3.6-2.3,8-0.3,11.7c2.1,3.7,5.9,5.9,10.1,5.9h5.7c2.3,0,4.1-1.9,4.1-4.1c0-2.3-1.9-4.1-4.1-4.1h-5.7c-1.7,0-2.6-1.2-2.9-1.7
		c-0.3-0.5-0.8-1.8,0.1-3.3l20.4-33c0.9-1.4,2.2-1.6,2.8-1.6c0.5,0,1.9,0.2,2.8,1.6l15.1,24.4l5.7,9.4c0.3,0.9,0.1,1.9-0.4,2.8
		c-0.4,0.5-1.2,1.4-2.7,1.4h-5.6c-2.3,0-4.1,1.9-4.1,4.1c0,2.3,1.9,4.1,4.1,4.1h5.6c3.8,0,7.4-1.9,9.6-5.1
		C64.2,51.8,64.6,47.8,63.2,44.3z"/>
</g>
</svg>
