<?xml version="1.0" encoding="utf-8"?>
<!-- Generator: Adobe Illustrator 22.1.0, SVG Export Plug-In . SVG Version: 6.00 Build 0)  -->
<svg version="1.1" id="Layer_1" xmlns="http://www.w3.org/2000/svg" xmlns:xlink="http://www.w3.org/1999/xlink" x="0px" y="0px"
	 viewBox="0 0 64 64" style="enable-background:new 0 0 64 64;" xml:space="preserve">
<style type="text/css">
	.st0{fill:#FFFFFF;}
</style>
<g>
	<path class="st0" d="M64,1.7c0-0.1,0-0.2-0.1-0.3c0-0.1-0.1-0.2-0.1-0.3c0,0,0-0.1-0.1-0.2c0-0.1-0.1-0.1-0.1-0.1
		c-0.1-0.1-0.1-0.2-0.2-0.2c-0.1-0.1-0.1-0.1-0.2-0.2l-0.1-0.1c-0.1,0-0.2-0.1-0.2-0.1c-0.1-0.1-0.2-0.1-0.3-0.1l0,0
		c-0.1,0-0.2,0-0.3-0.1c-0.1,0-0.2,0-0.4,0c-0.1,0-0.2,0-0.3,0c0,0-0.1,0-0.2,0l-60,20.4c-0.8,0.3-1.4,1-1.4,1.9s0.5,1.6,1.3,1.9
		L29,35l12,27.7c0.3,0.7,1.1,1.2,1.9,1.2H43c0.8,0,1.6-0.6,1.8-1.4L63.9,2.6c0-0.1,0-0.2,0-0.2c0-0.1,0-0.2,0-0.3
		C64,1.9,64,1.8,64,1.7z M54.3,6.7L30.1,30.9L8,22.5L54.3,6.7z M57.5,9.3L42.6,56.1L33,33.9L57.5,9.3z"/>
	<path class="st0" d="M22.6,41.4c-0.8-0.8-2.1-0.8-2.9,0L0.6,60.5C0.2,60.9,0,61.4,0,62c0,0.5,0.2,1.1,0.6,1.4C1,63.8,1.5,64,2,64
		s1.1-0.2,1.4-0.6l19.1-19.1C23.4,43.5,23.4,42.2,22.6,41.4z"/>
	<path class="st0" d="M25.1,51l-9.5,9.5c-0.8,0.8-0.8,2.1,0,2.9C16,63.8,16.5,64,17,64s1.1-0.2,1.4-0.6l9.5-9.5
		c0.8-0.8,0.8-2.1,0-2.9C27.2,50.2,25.9,50.2,25.1,51z"/>
	<path class="st0" d="M3.5,48.4l9.5-9.5c0.8-0.8,0.8-2.1,0-2.9c-0.8-0.8-2.1-0.8-2.9,0l-9.5,9.5C0.2,45.9,0,46.4,0,47
		s0.2,1.1,0.6,1.4C1,48.8,1.5,49,2,49S3.1,48.8,3.5,48.4z"/>
</g>
</svg>
