<?xml version="1.0" encoding="utf-8"?>
<!-- Generator: Adobe Illustrator 22.1.0, SVG Export Plug-In . SVG Version: 6.00 Build 0)  -->
<svg version="1.1" id="Layer_1" xmlns="http://www.w3.org/2000/svg" xmlns:xlink="http://www.w3.org/1999/xlink" x="0px" y="0px"
	 viewBox="0 0 640 60" style="enable-background:new 0 0 640 60;" xml:space="preserve">
<style type="text/css">
	.st0{fill:#FFFFFF;}
</style>
<path class="st0" d="M603.5,49.3V24l22.7,30c2.4,3.2,4.6,4.6,7.2,4.6c4,0,5.7-2.6,5.7-7.8v-40c0-6-2-8.9-6.3-8.9s-6.3,2.9-6.3,8.9
	v25.8L603.4,5.9c-2-2.6-3.9-4-6.7-4c-4,0-5.8,2.9-5.8,8.4v39.1c0,6,2,8.9,6.3,8.9C601.5,58.2,603.5,55.3,603.5,49.3"/>
<path class="st0" d="M549.5,49.3V10.7c0-6-2-8.9-6.3-8.9c-4.3,0-6.3,2.9-6.3,8.9v38.6c0,6,2,8.9,6.3,8.9
	C547.5,58.2,549.5,55.3,549.5,49.3"/>
<path class="st0" d="M464.4,35.6l6.8-20.4l6.4,20.4H464.4z M494.6,48.6L480.7,9c-1.7-4.7-5-7.3-9.2-7.3c-4.6,0-7.6,2.6-9.6,8.1
	l-14.3,38.9c-0.5,1.2-0.6,2.4-0.6,3.6c0,3.5,2.5,6,6,6c2.7,0,4.8-1.9,6-5.6l1.9-5.6h20.4l1.5,5.1c1.2,4.1,3.3,6.1,6.6,6.1
	c3.5,0,6.2-2.3,6.2-5.9C495.5,51.4,495.2,50.1,494.6,48.6"/>
<path class="st0" d="M372.2,35.3h23.1v14c0,6,2,8.9,6.3,8.9s6.3-2.9,6.3-8.9V10.7c0-6-2-8.9-6.3-8.9s-6.3,2.9-6.3,8.9v13h-23.1v-13
	c0-6-2-8.9-6.3-8.9c-4.3,0-6.3,2.9-6.3,8.9v38.7c0,6,2,8.9,6.3,8.9c4.3,0,6.3-2.9,6.3-8.9V35.3z"/>
<path class="st0" d="M101.5,10.8v39.7c0,6.1,1.9,8,8.7,8h21.6c6.1,0,9.1-1.9,9.1-5.9s-3-5.9-9.1-5.9h-17.5V10.8c0-6.1-2-9.1-6.4-9.1
	S101.5,4.8,101.5,10.8"/>
<path class="st0" d="M58.3,25.4c0.6,3.6-1.8,7-5.4,7.5c-3.6,0.6-7-1.8-7.5-5.4c-0.6-3.7-2.5-6.9-5.2-9.2c-2.7-2.3-6.1-3.6-9.9-3.6
	c-4.2,0-8.1,1.7-10.8,4.5l0,0l0,0c-2.8,2.8-4.5,6.6-4.5,10.8c0,3.7,1.3,7.2,3.5,9.8c2.2,2.7,5.4,4.6,9,5.3c3.6,0.7,5.9,4.1,5.3,7.6
	c-0.7,3.6-4.1,5.9-7.6,5.3c-6.7-1.2-12.5-4.8-16.7-9.8c-4.1-5-6.6-11.3-6.6-18.2c0-7.9,3.2-15,8.3-20.1l0,0
	c5.2-5.2,12.3-8.4,20.1-8.4c7,0,13.4,2.5,18.4,6.8C53.7,12.6,57.2,18.6,58.3,25.4"/>
<path class="st0" d="M222.8,6.9c2.9,2.1,3.6,6.2,1.5,9.2c-2.1,2.9-6.2,3.6-9.2,1.5c-3-2.2-6.6-3.1-10.2-2.8
	c-3.5,0.3-6.9,1.8-9.6,4.4c-3,3-4.5,6.9-4.5,10.8v0h0c0,3.9,1.5,7.8,4.5,10.8c2.6,2.6,6,4.1,9.4,4.4c3.5,0.3,7.1-0.5,10.1-2.6
	c3-2.1,7.1-1.3,9.1,1.7c2.1,3,1.3,7.1-1.7,9.1c-5.6,3.8-12.3,5.5-18.8,4.9c-6.4-0.6-12.6-3.3-17.5-8.2c-5.6-5.6-8.3-12.9-8.3-20.1h0
	c0-7.3,2.8-14.6,8.3-20.1c5-5,11.3-7.7,17.8-8.2C210.4,1.1,217.2,2.9,222.8,6.9"/>
<path class="st0" d="M315.5,7c2.9,2.1,3.6,6.2,1.5,9.2c-2.1,2.9-6.2,3.6-9.2,1.5c-3-2.2-6.6-3.1-10.2-2.8c-3.5,0.3-6.9,1.8-9.6,4.4
	c-3,3-4.5,6.9-4.5,10.8v0h0c0,3.9,1.5,7.8,4.5,10.8c2.6,2.6,6,4.1,9.4,4.4c3.5,0.3,7.1-0.5,10.1-2.6c3-2.1,7.1-1.3,9.1,1.7
	c2.1,3,1.3,7.1-1.7,9.1c-5.6,3.8-12.3,5.5-18.8,4.9c-6.4-0.6-12.6-3.3-17.5-8.2c-5.6-5.6-8.3-12.9-8.3-20.1h0
	c0-7.3,2.8-14.6,8.3-20.1c5-5,11.3-7.7,17.8-8.2C303.1,1.3,309.9,3,315.5,7"/>
<path class="st0" d="M58.7,51.9c0,3.7-3,6.7-6.7,6.7c-3.7,0-6.7-3-6.7-6.7c0-3.7,3-6.7,6.7-6.7C55.7,45.1,58.7,48.2,58.7,51.9"/>
</svg>
