<?xml version="1.0" encoding="utf-8"?>
<!-- Generator: Adobe Illustrator 22.1.0, SVG Export Plug-In . SVG Version: 6.00 Build 0)  -->
<svg version="1.1" id="Layer_1" xmlns="http://www.w3.org/2000/svg" xmlns:xlink="http://www.w3.org/1999/xlink" x="0px" y="0px"
	 viewBox="0 0 64 64" style="enable-background:new 0 0 64 64;" xml:space="preserve">
<style type="text/css">
	.st0{fill:#56AF08;}
</style>
<path class="st0" d="M63.8,24.5L63.8,24.5c-0.4-1.1-1.3-2-2.5-2.1L43,19.7L34.8,3.1c-0.5-1-1.6-1.6-2.8-1.6s-2.3,0.6-2.8,1.6
	L21,19.7L2.7,22.4c-1.2,0.2-2.2,1-2.5,2.1c-0.4,1.1-0.1,2.4,0.8,3.2l13.2,12.9l-3.1,18.2c-0.2,1.2,0.3,2.4,1.3,3.1
	c0.5,0.4,1.2,0.6,1.8,0.6c0.5,0,1-0.1,1.5-0.4L32,53.6l16.4,8.6c1.1,0.6,2.4,0.5,3.3-0.2c1-0.7,1.4-1.9,1.2-3.1l-3.1-18.2L63,27.7
	C63.9,26.9,64.2,25.6,63.8,24.5z M44.2,37.3c-0.7,0.7-1.1,1.8-0.9,2.8l2.3,13.6l-12.2-6.4c-0.4-0.2-1-0.4-1.5-0.4
	c-0.5,0-1,0.1-1.5,0.4l-12.2,6.4l2.3-13.6c0.2-1-0.2-2.1-0.9-2.8l-9.9-9.6l13.6-2c1-0.1,1.9-0.8,2.4-1.7L32,11.6l6.1,12.4
	c0.5,0.9,1.3,1.6,2.4,1.7l13.6,2L44.2,37.3L44.2,37.3z"/>
</svg>
