<?xml version="1.0" encoding="utf-8"?>
<!-- Generator: Adobe Illustrator 22.1.0, SVG Export Plug-In . SVG Version: 6.00 Build 0)  -->
<svg version="1.1" id="Layer_1" xmlns="http://www.w3.org/2000/svg" xmlns:xlink="http://www.w3.org/1999/xlink" x="0px" y="0px"
	 viewBox="0 0 64 64" style="enable-background:new 0 0 64 64;" xml:space="preserve">
<style type="text/css">
	.st0{fill:#452D78;}
</style>
<g>
	<g>
		<path class="st0" d="M59.9,4.1c-5.5-5.5-14.5-5.5-20,0L3.2,40.8c-0.2,0.2-0.4,0.6-0.5,1L0,61.9c-0.1,0.6,0.1,1.1,0.5,1.5
			C0.9,63.8,1.4,64,1.8,64C1.9,64,2,64,2,64l12.1-1.6c1-0.1,1.7-1.1,1.6-2.1c-0.1-1-1.1-1.7-2.1-1.6L4,60l1.9-14l14.8,14.8
			c0.3,0.3,0.8,0.5,1.3,0.5s1-0.2,1.3-0.5l36.6-36.6c2.7-2.7,4.1-6.2,4.1-10C64,10.4,62.5,6.8,59.9,4.1L59.9,4.1z M40.6,8.6l6.1,6.2
			L13.3,48.2l-6.2-6.1L40.6,8.6z M21.9,56.8l-6-6l33.4-33.4l6,6L21.9,56.8z M57.9,20.8L43.2,6.1c1.9-1.5,4.2-2.4,6.7-2.4
			c2.8,0,5.4,1.1,7.4,3.1s3.1,4.6,3.1,7.4C60.3,16.6,59.5,18.9,57.9,20.8L57.9,20.8z"/>
	</g>
</g>
</svg>
