<?xml version="1.0" encoding="utf-8"?>
<!-- Generator: Adobe Illustrator 22.1.0, SVG Export Plug-In . SVG Version: 6.00 Build 0)  -->
<svg version="1.1" id="Layer_1" xmlns="http://www.w3.org/2000/svg" xmlns:xlink="http://www.w3.org/1999/xlink" x="0px" y="0px"
	 viewBox="0 0 64 64" style="enable-background:new 0 0 64 64;" xml:space="preserve">
<style type="text/css">
	.st0{fill-rule:evenodd;clip-rule:evenodd;fill:#C10F0F;}
</style>
<g>
	<path class="st0" d="M42,56c1.1,0,2-0.9,2-2V30c0-1.1-0.9-2-2-2c-1.1,0-2,0.9-2,2v24C40,55.1,40.9,56,42,56L42,56z"/>
	<path class="st0" d="M54,8H42V4c0-2.2-1.8-4-4-4H26c-2.2,0-4,1.8-4,4v4H10c-2.2,0-4,1.8-4,4v4c0,2.2,1.8,4,4,4v36c0,4.4,3.6,8,8,8
		h28c4.4,0,8-3.6,8-8V20c2.2,0,4-1.8,4-4v-4C58,9.8,56.2,8,54,8z M26,6c0-1.1,0.9-2,2-2h8c1.1,0,2,0.9,2,2v2H26V6z M50,56
		c0,2.2-1.8,4-4,4H18c-2.2,0-4-1.8-4-4V20h36V56z M52,16H12c-1.1,0-2-0.9-2-2c0-1.1,0.9-2,2-2h40c1.1,0,2,0.9,2,2
		C54,15.1,53.1,16,52,16z"/>
	<path class="st0" d="M22,56c1.1,0,2-0.9,2-2V30c0-1.1-0.9-2-2-2c-1.1,0-2,0.9-2,2v24C20,55.1,20.9,56,22,56L22,56z"/>
	<path class="st0" d="M32,56c1.1,0,2-0.9,2-2V30c0-1.1-0.9-2-2-2c-1.1,0-2,0.9-2,2v24C30,55.1,30.9,56,32,56L32,56z"/>
</g>
</svg>
