<?xml version="1.0" encoding="utf-8"?>
<!-- Generator: Adobe Illustrator 22.1.0, SVG Export Plug-In . SVG Version: 6.00 Build 0)  -->
<svg version="1.1" id="Layer_1" xmlns="http://www.w3.org/2000/svg" xmlns:xlink="http://www.w3.org/1999/xlink" x="0px" y="0px"
	 viewBox="0 0 64 64" style="enable-background:new 0 0 64 64;" xml:space="preserve">
<style type="text/css">
	.st0{fill:#FFFFFF;}
</style>
<g>
	<path class="st0" d="M31.9,18.4c-7.6,0-13.8,6.2-13.8,13.8c0,7.7,6.2,13.9,13.8,13.9s13.8-6.2,13.8-13.8
		C45.8,24.6,39.6,18.4,31.9,18.4z M31.9,42.5c-5.6,0-10.2-4.6-10.2-10.2c0-5.7,4.6-10.2,10.2-10.2s10.2,4.6,10.2,10.2
		S37.6,42.5,31.9,42.5z"/>
	<path class="st0" d="M60.7,25.4l-4.5-0.8c-0.5-1.5-1.1-3-1.8-4.4l2.6-3.7c1.1-1.6,0.9-3.7-0.4-5.1l-4-4c-0.7-0.7-1.7-1.2-2.8-1.2
		c-0.8,0-1.6,0.3-2.3,0.7l-3.7,2.6c-1.4-0.8-3-1.4-4.5-1.9l-0.7-4.4c-0.3-1.9-2-3.3-3.9-3.3H29c-1.9,0-3.6,1.4-3.9,3.3l-0.8,4.5
		c-1.5,0.5-3,1.1-4.3,1.8l-3.7-2.4c-0.7-0.5-1.5-0.7-2.3-0.7c-1.1,0-2.1,0.4-2.8,1.2l-4,4c-1.4,1.4-1.6,3.5-0.4,5.1l2.7,3.8
		c-0.7,1.4-1.3,2.9-1.8,4.4l-4.4,0.7c-1.9,0.3-3.3,2-3.3,3.9v5.6C0,37,1.4,38.7,3.3,39l4.5,0.8c0.5,1.5,1.1,3,1.8,4.3l-2.7,3.6
		c-1.1,1.6-0.9,3.7,0.4,5.1l4,4c0.7,0.7,1.7,1.2,2.8,1.2c0.8,0,1.6-0.3,2.3-0.7l3.8-2.7c1.4,0.7,2.8,1.3,4.2,1.7l0.7,4.5
		c0.3,1.9,2,3.3,3.9,3.3h5.6c1.9,0,3.6-1.4,3.9-3.3l0.8-4.5c1.5-0.5,3-1.1,4.4-1.8l3.7,2.6c0.7,0.5,1.5,0.7,2.3,0.7
		c1.1,0,2-0.4,2.8-1.2l4-4c1.4-1.4,1.6-3.5,0.4-5.1l-2.6-3.7c0.7-1.4,1.4-2.9,1.8-4.4l4.5-0.7c1.9-0.3,3.3-2,3.3-3.9v-5.6
		C64,27.3,62.6,25.7,60.7,25.4z M60.4,34.9L60.4,34.9c0,0.2-0.1,0.3-0.3,0.3l-5.6,0.9c-0.7,0.1-1.3,0.6-1.4,1.3
		c-0.5,2-1.3,3.9-2.3,5.6c-0.4,0.6-0.3,1.4,0.1,2l3.3,4.7c0.1,0.1,0.1,0.3,0,0.5l-4,4c-0.1,0.1-0.2,0.1-0.3,0.1s-0.1,0-0.2-0.1
		L45,50.8c-0.6-0.4-1.4-0.4-2-0.1c-1.8,1-3.6,1.8-5.6,2.3c-0.7,0.2-1.2,0.7-1.3,1.4L35.2,60c0,0.2-0.2,0.3-0.3,0.3h-5.6
		c-0.2,0-0.3-0.1-0.3-0.3L28,54.4c-0.1-0.7-0.6-1.3-1.3-1.4c-1.9-0.5-3.8-1.3-5.5-2.2c-0.3-0.2-0.6-0.2-0.9-0.2
		c-0.4,0-0.7,0.1-1,0.3l-4.7,3.3c-0.1,0-0.1,0.1-0.2,0.1c-0.1,0-0.2,0-0.3-0.1l-4-4c-0.1-0.1-0.1-0.3,0-0.5l3.3-4.6
		c0.4-0.6,0.4-1.4,0.1-2c-1-1.7-1.8-3.6-2.4-5.6c-0.2-0.7-0.7-1.2-1.4-1.3l-5.7-1c-0.2,0-0.3-0.2-0.3-0.3v-5.6
		c0-0.2,0.1-0.3,0.3-0.3l5.4-1c0.7-0.1,1.3-0.6,1.5-1.3c0.5-2,1.3-3.9,2.3-5.6c0.4-0.6,0.3-1.4-0.1-2l-3.3-4.7
		c-0.1-0.1-0.1-0.3,0-0.5l4-4C13.9,10,14,10,14.1,10s0.1,0,0.2,0.1l4.6,3.3c0.6,0.4,1.4,0.4,2,0.1c1.7-1,3.6-1.8,5.6-2.4
		c0.7-0.2,1.2-0.7,1.3-1.4l1-5.7c0-0.2,0.2-0.3,0.3-0.3h5.6c0.2,0,0.3,0.1,0.3,0.3L36,9.7c0.1,0.7,0.6,1.3,1.3,1.5
		c2,0.5,3.9,1.3,5.7,2.4c0.6,0.4,1.4,0.3,2-0.1l4.6-3.3c0.1,0,0.1-0.1,0.2-0.1c0.1,0,0.2,0,0.3,0.1l4,4c0.1,0.1,0.1,0.3,0,0.5
		l-3.3,4.5c-0.4,0.6-0.4,1.4-0.1,2c1,1.8,1.8,3.6,2.3,5.6c0.2,0.7,0.7,1.2,1.4,1.3l5.6,0.9c0.2,0,0.3,0.2,0.3,0.3v5.7H60.4z"/>
</g>
</svg>
