<?xml version="1.0" encoding="utf-8"?>
<!-- Generator: Adobe Illustrator 22.1.0, SVG Export Plug-In . SVG Version: 6.00 Build 0)  -->
<svg version="1.1" id="Layer_1" xmlns="http://www.w3.org/2000/svg" xmlns:xlink="http://www.w3.org/1999/xlink" x="0px" y="0px"
	 viewBox="0 0 64 64" style="enable-background:new 0 0 64 64;" xml:space="preserve">
<style type="text/css">
	.st0{fill:#FFFFFF;}
</style>
<g>
	<path class="st0" d="M43.2,39.5c6.1-3.7,10.1-10.4,10.1-18.1C53.3,9.6,43.7,0,32,0S10.7,9.6,10.7,21.3c0,7.7,4,14.4,10.1,18.1
		C10.1,43.5,2.1,52.8,0,64h5.3C8,51.7,18.9,42.7,32,42.7S56,51.7,58.7,64H64C61.9,52.5,53.9,43.2,43.2,39.5L43.2,39.5z M16,21.3
		c0-8.8,7.2-16,16-16s16,7.2,16,16c0,8.8-7.2,16-16,16S16,30.1,16,21.3L16,21.3z M16,21.3"/>
</g>
</svg>
