<?xml version="1.0" encoding="utf-8"?>
<!-- Generator: Adobe Illustrator 22.1.0, SVG Export Plug-In . SVG Version: 6.00 Build 0)  -->
<svg version="1.1" id="Layer_1" xmlns="http://www.w3.org/2000/svg" xmlns:xlink="http://www.w3.org/1999/xlink" x="0px" y="0px"
	 viewBox="0 0 1365.3 1365.3" style="enable-background:new 0 0 1365.3 1365.3;" xml:space="preserve">
<g>
	<path d="M682.7,1149.4c31.4,0,56.9-25.4,56.9-56.9c0-31.4-25.5-56.8-56.9-56.8c-97.5,0-185.8-39.5-249.6-103.4
		S329.7,780.2,329.7,682.7c0-31.4-25.5-56.9-56.9-56.9c-31.4,0-56.8,25.5-56.8,56.9c0,128.9,52.2,245.5,136.7,330
		C437.1,1097.1,553.8,1149.4,682.7,1149.4"/>
	<path d="M682.7,216c-31.4,0-56.9,25.4-56.9,56.8c0,31.4,25.5,56.9,56.9,56.9c97.5,0,185.8,39.5,249.6,103.4
		c63.9,63.9,103.4,152.1,103.4,249.6c0,31.4,25.5,56.9,56.9,56.9s56.8-25.5,56.8-56.9c0-128.9-52.2-245.5-136.7-330
		C928.2,268.2,811.5,216,682.7,216"/>
	<path d="M434,682.7C434,682.7,435.3,682.7,434,682.7"/>
	<path d="M682.7,434L682.7,434h0.3c68.5,0.1,130.5,27.9,175.5,72.8c45,45,72.8,107.2,72.8,175.8c0,31.4-25.4,56.9-56.8,56.9
		c-31.4,0-56.8-25.4-56.8-56.9c0-37.3-15.1-71-39.5-95.4c-24.4-24.4-58.2-39.5-95.4-39.5c-37.3,0-71,15.1-95.4,39.5
		c-52.4,52.4-52.4,138.4,0,190.8c24.4,24.4,58.2,39.5,95.4,39.5c31.4,0,56.9,25.5,56.9,56.8c0,31.4-25.5,56.9-56.9,56.9
		c-68.6,0-130.8-27.8-175.8-72.8c-45-45-72.8-107.1-72.8-175.8c0-68.6,27.8-130.8,72.8-175.8C551.9,461.9,614,434,682.7,434
		L682.7,434h0.3H682.7z"/>
	<path d="M914.7,914.7L914.7,914.7c22.1-22.1,22.1-58.3,0-80.4l-0.9-0.9c-22.1-22.1-58.4-22.1-80.4,0c-22.1,22.1-22.1,58.4,0,80.4
		l0.9,0.9C856.3,936.8,892.6,936.8,914.7,914.7"/>
	<path d="M682.7,1.6c-31.4,0-56.9,25.4-56.9,56.9c0,31.4,25.5,56.8,56.9,56.8c156.7,0,298.5,63.5,401.2,166.2
		C1186.5,384.2,1250,526,1250,682.7c0,31.4,25.4,56.8,56.8,56.8c31.4,0,56.9-25.4,56.9-56.8c0-188.1-76.2-358.3-199.5-481.6
		C1041,77.8,870.7,1.6,682.7,1.6"/>
	<path d="M682.7,1363.7c31.4,0,56.9-25.5,56.9-56.9c0-31.4-25.5-56.8-56.9-56.8c-156.7,0-298.5-63.5-401.2-166.2
		C178.8,981.2,115.3,839.3,115.3,682.7c0-31.4-25.4-56.8-56.8-56.8c-31.4,0-56.9,25.4-56.9,56.8c0,188.1,76.2,358.3,199.5,481.6
		C324.3,1287.5,494.6,1363.7,682.7,1363.7"/>
</g>
</svg>
